<svg width="210" height="48" viewBox="0 0 210 48" fill="none" xmlns="http://www.w3.org/2000/svg">
<g clip-path="url(#clip0_763_630)">
<path d="M32.6175 32.92H13.1775V43H7.4175V17.8L12.4575 12.76H7.4175V7.72H32.6175V12.76H13.1775V32.2L17.4975 27.88H32.6175V32.92ZM66.4744 43H61.4344V39.4L57.8344 43H46.3144C44.9224 43 43.7224 42.52 42.7144 41.56C41.7544 40.552 41.2744 39.352 41.2744 37.96V17.8H46.3144V38.68H61.4344V17.8H66.4744V43ZM101.771 43H96.7313V22.12H81.6113V43H76.5713V17.8H81.6113V21.4L85.2113 17.8H96.7313C98.1233 17.8 99.2993 18.304 100.259 19.312C101.267 20.272 101.771 21.448 101.771 22.84V43ZM138.508 32.92H119.068V43H113.308V17.8L118.348 12.76H113.308V7.72H138.508V12.76H119.068V32.2L123.388 27.88H138.508V32.92ZM152.205 13.48H147.165V7.72H152.205V13.48ZM152.205 43H147.165V21.4L152.205 16.36V43ZM178.842 43H168.762C167.37 43 166.17 42.52 165.162 41.56C164.202 40.552 163.722 39.352 163.722 37.96V22.12H156.522L160.842 17.8H163.722V12.76L168.762 7.72V17.8H178.842V22.12H168.762V38.68H178.842V43ZM206.568 17.8L202.176 22.12H190.008V27.88H200.088C201.48 27.88 202.656 28.384 203.616 29.392C204.624 30.352 205.128 31.528 205.128 32.92V37.96C205.128 39.352 204.624 40.552 203.616 41.56C202.656 42.52 201.48 43 200.088 43H184.968V38.68H200.088V32.2H190.008C188.616 32.2 187.416 31.72 186.408 30.76C185.448 29.752 184.968 28.552 184.968 27.16V22.84C184.968 21.448 185.448 20.272 186.408 19.312C187.416 18.304 188.616 17.8 190.008 17.8H206.568Z" fill="white"/>
</g>
<defs>
<clipPath id="clip0_763_630">
<rect width="210" height="48" fill="white"/>
</clipPath>
</defs>
</svg>
